<svg xmlns="http://www.w3.org/2000/svg" xmlns:xlink="http://www.w3.org/1999/xlink" width="600" height="700" viewBox="0 0 600 700">
    <defs>
        <rect id="b" width="184" height="303" rx="12"/>
        <filter id="a" width="122.8%" height="113.9%" x="-11.4%" y="-5%" filterUnits="objectBoundingBox">
            <feOffset dy="6" in="SourceAlpha" result="shadowOffsetOuter1"/>
            <feMorphology in="SourceAlpha" radius="1" result="shadowInner"/>
            <feOffset dy="6" in="shadowInner" result="shadowInner"/>
            <feComposite in="shadowOffsetOuter1" in2="shadowInner" operator="out" result="shadowOffsetOuter1"/>
            <feGaussianBlur in="shadowOffsetOuter1" result="shadowBlurOuter1" stdDeviation="6"/>
            <feColorMatrix in="shadowBlurOuter1" values="0 0 0 0 0.121568627 0 0 0 0 0.0117647059 0 0 0 0 0.137254902 0 0 0 0.0944055944 0"/>
        </filter>
        <rect id="d" width="184" height="303" rx="12"/>
        <filter id="c" width="122.8%" height="113.9%" x="-11.4%" y="-5%" filterUnits="objectBoundingBox">
            <feOffset dy="6" in="SourceAlpha" result="shadowOffsetOuter1"/>
            <feMorphology in="SourceAlpha" radius="1" result="shadowInner"/>
            <feOffset dy="6" in="shadowInner" result="shadowInner"/>
            <feComposite in="shadowOffsetOuter1" in2="shadowInner" operator="out" result="shadowOffsetOuter1"/>
            <feGaussianBlur in="shadowOffsetOuter1" result="shadowBlurOuter1" stdDeviation="6"/>
            <feColorMatrix in="shadowBlurOuter1" values="0 0 0 0 0.121568627 0 0 0 0 0.0117647059 0 0 0 0 0.137254902 0 0 0 0.0944055944 0"/>
        </filter>
        <path id="f" d="M12 0h398c6.627 0 12 5.373 12 12v57c0 6.627-5.373 12-12 12H12C5.373 81 0 75.627 0 69V12C0 5.373 5.373 0 12 0z"/>
        <filter id="e" width="110%" height="151.9%" x="-5%" y="-18.5%" filterUnits="objectBoundingBox">
            <feOffset dy="6" in="SourceAlpha" result="shadowOffsetOuter1"/>
            <feGaussianBlur in="shadowOffsetOuter1" result="shadowBlurOuter1" stdDeviation="6"/>
            <feComposite in="shadowBlurOuter1" in2="SourceAlpha" operator="out" result="shadowBlurOuter1"/>
            <feColorMatrix in="shadowBlurOuter1" values="0 0 0 0 0 0 0 0 0 0 0 0 0 0 0 0 0 0 0.954955201 0"/>
        </filter>
    </defs>
    <g fill="none" fill-rule="evenodd">
        <g transform="translate(0 133)">
            <rect width="599" height="566" x=".5" y=".5" stroke="#624E65" rx="12"/>
            <text fill="#624E65" font-family="Rubik-Medium, Rubik" font-size="16" font-weight="400" transform="translate(18 17)">
                <tspan x="39" y="22">Kubernetes Cluster</tspan>
            </text>
            <g fill-rule="nonzero">
                <path fill="#624E65" d="M48.041 24.078c-.188-.603-.64-1.092-1.204-1.393l-11.483-5.497c-.3-.15-.64-.188-.94-.188-.302 0-.64 0-.942.075L21.99 22.61a2.023 2.023 0 0 0-1.13 1.393l-2.823 12.386c-.113.64.037 1.28.414 1.807l7.943 9.826a2.74 2.74 0 0 0 1.732.79h12.65c.677.076 1.317-.225 1.731-.79l7.944-9.826a2.57 2.57 0 0 0 .452-1.807l-2.862-12.31z"/>
                <path fill="#FFF" fill-opacity=".359" d="M46.272 35.899c-.038 0-.075 0-.075-.038 0-.037-.076-.037-.15-.037-.151-.038-.302-.038-.453-.038-.075 0-.15 0-.226-.038h-.037a7.608 7.608 0 0 1-1.28-.226.455.455 0 0 1-.264-.263c.038 0 0 0 0 0l-.3-.075c.15-1.092.074-2.222-.151-3.313a10.199 10.199 0 0 0-1.318-3.087l.226-.226v-.038c0-.113.037-.264.113-.339a6.742 6.742 0 0 1 1.054-.753l.226-.113c.15-.075.263-.15.414-.226.037-.037.075-.037.113-.075.037-.038 0-.038 0-.075.339-.264.414-.715.15-1.054a.719.719 0 0 0-.527-.264.9.9 0 0 0-.527.188l-.037.038c-.038.038-.076.075-.113.075-.113.113-.226.226-.302.34-.037.074-.112.112-.15.15a4.95 4.95 0 0 1-.941.828.535.535 0 0 1-.226.075c-.038 0-.113 0-.15-.037h-.038l-.302.188c-.3-.301-.64-.602-.94-.904-1.394-1.091-3.125-1.77-4.895-1.957l-.038-.301v.037c-.112-.075-.15-.188-.188-.301 0-.414 0-.828.076-1.28v-.038c0-.075.037-.15.037-.226.038-.15.038-.3.075-.451v-.226c.038-.377-.263-.753-.64-.79-.225-.038-.451.075-.64.263a.743.743 0 0 0-.225.527v.188c0 .15.037.301.075.452.038.075.038.15.038.226v.037c.075.414.075.829.075 1.28-.038.113-.075.226-.188.302v.075l-.038.301c-.414.038-.828.113-1.28.188-1.77.377-3.388 1.318-4.63 2.636l-.227-.151h-.037c-.038 0-.075.038-.15.038a.535.535 0 0 1-.227-.076 6.941 6.941 0 0 1-.94-.866c-.038-.075-.114-.113-.151-.15-.113-.113-.189-.226-.302-.339-.037-.038-.075-.038-.113-.075l-.037-.038a.9.9 0 0 0-.527-.188c-.226 0-.414.075-.527.263a.81.81 0 0 0 .15 1.054c.038 0 .038.038.038.038s.075.075.113.075c.113.076.263.151.414.226l.226.113c.376.226.753.452 1.054.753.075.075.15.226.113.339v-.038l.226.226c-.038.076-.075.113-.113.188-1.167 1.845-1.657 4.029-1.318 6.175l-.301.075c0 .038-.038.038-.038.038-.037.112-.15.188-.263.263a6.993 6.993 0 0 1-1.28.226c-.075 0-.15 0-.226.038-.15 0-.301.037-.452.037-.037 0-.075.038-.15.038-.038 0-.038 0-.076.038a.735.735 0 0 0-.602.865.699.699 0 0 0 .753.527c.075 0 .113 0 .188-.037.038 0 .038 0 .038-.038 0-.037.113 0 .15 0 .151-.037.302-.113.415-.15.075-.038.15-.076.225-.076h.038c.414-.15.79-.263 1.242-.339h.038c.113 0 .226.038.301.113.038 0 .038.038.038.038l.339-.038a9.087 9.087 0 0 0 3.087 4.405c.339.264.64.49 1.016.678l-.188.263c0 .038.038.038.038.038a.445.445 0 0 1 .037.376c-.15.377-.376.753-.602 1.092v.038a.66.66 0 0 1-.15.188c-.076.075-.151.226-.264.377-.038.037-.038.075-.075.112 0 0 0 .038-.038.038a.775.775 0 0 0 .301 1.017.698.698 0 0 0 .264.075c.3 0 .564-.188.715-.452 0 0 0-.038.038-.038 0-.037.037-.075.075-.112.037-.151.113-.264.15-.415l.076-.225c.113-.415.3-.791.49-1.168a.585.585 0 0 1 .3-.225c.038 0 .038 0 .038-.038l.15-.301a8.862 8.862 0 0 0 3.276.602c.677 0 1.355-.075 2.033-.263.414-.076.828-.226 1.204-.34l.151.264c.038 0 .038 0 .038.038a.585.585 0 0 1 .3.226c.19.376.377.753.49 1.167v.038l.076.225c.037.151.075.302.15.415.038.037.038.075.075.112 0 0 0 .038.038.038.15.264.414.452.715.452.113 0 .189-.038.302-.075a.63.63 0 0 0 .338-.415.968.968 0 0 0-.037-.564c0-.038-.038-.038-.038-.038 0-.038-.038-.075-.075-.113a1.352 1.352 0 0 0-.264-.376c-.037-.076-.075-.113-.15-.189v-.075a4.448 4.448 0 0 1-.603-1.092.445.445 0 0 1 .038-.376c0-.038.038-.038.038-.038l-.113-.3c1.92-1.168 3.388-2.975 4.066-5.12l.3.037c.038 0 .038-.038.038-.038a.427.427 0 0 1 .302-.113h.037a6.33 6.33 0 0 1 1.205.339h.038c.075.038.15.075.225.075.151.076.264.15.415.189.037 0 .075.037.15.037.038 0 .038 0 .075.038.076.037.113.037.189.037.339 0 .64-.225.753-.527a.888.888 0 0 0-.678-.79zm-10.88-1.167l-1.016.49-1.017-.49-.263-1.092.715-.904h1.13l.715.904-.264 1.092zm6.136-2.447c.189.79.226 1.58.151 2.371l-3.576-1.016c-.34-.075-.527-.414-.452-.753a.607.607 0 0 1 .15-.263l2.824-2.56a7.66 7.66 0 0 1 .903 2.22zm-2.032-3.614l-3.088 2.183c-.263.15-.64.113-.828-.15a.342.342 0 0 1-.113-.264l-.226-3.802a7.085 7.085 0 0 1 4.255 2.033zm-6.815-1.92l.753-.151-.188 3.765c0 .339-.301.602-.64.602-.113 0-.188-.038-.301-.075L29.18 28.67c.979-.942 2.184-1.62 3.501-1.92zm-4.593 3.313l2.786 2.484a.605.605 0 0 1 .076.866c-.076.113-.151.15-.302.188l-3.651 1.054a7.925 7.925 0 0 1 1.091-4.592zm-.64 6.362l3.728-.64c.3 0 .602.188.64.49a.445.445 0 0 1-.038.376l-1.43 3.463a7.406 7.406 0 0 1-2.9-3.69zm8.546 4.668a7.618 7.618 0 0 1-1.618.188c-.791 0-1.62-.15-2.372-.376l1.844-3.35c.189-.227.49-.302.753-.151.113.075.189.15.302.263l1.807 3.276c-.226.037-.452.075-.716.15zm4.593-3.275a7.189 7.189 0 0 1-2.259 2.259l-1.468-3.54a.612.612 0 0 1 .339-.714c.113-.038.226-.076.339-.076l3.765.64c-.189.527-.415 1.017-.716 1.43z"/>
            </g>
            <g>
                <g transform="translate(81 168)">
                    <use fill="#000" filter="url(#a)" xlink:href="#b"/>
                    <rect width="183" height="302" x=".5" y=".5" stroke="#624E65" stroke-linejoin="square" rx="12"/>
                </g>
                <g fill="#9D0FB0" transform="translate(103 232)">
                    <rect width="136" height="46" x="1" y="1" fill-opacity=".126" stroke="#9D0FB0" stroke-width="2" rx="12"/>
                    <text font-family="Rubik-Medium, Rubik" font-size="16" font-weight="400">
                        <tspan x="46.688" y="30">Pod A</tspan>
                    </text>
                </g>
                <g fill="#9D0FB0" transform="translate(103 392)">
                    <rect width="136" height="46" x="1" y="1" fill-opacity=".126" stroke="#9D0FB0" stroke-width="2" rx="12"/>
                    <text font-family="Rubik-Medium, Rubik" font-size="16" font-weight="400">
                        <tspan x="46.76" y="30">Pod C</tspan>
                    </text>
                </g>
                <text fill="#000000" font-family="Rubik-Medium, Rubik" font-size="16" font-weight="400" transform="translate(81 168)">
                    <tspan x="19.816" y="33">Kubernetes Node 1</tspan>
                </text>
                <g transform="translate(335 168)">
                    <use fill="#000" filter="url(#c)" xlink:href="#d"/>
                    <rect width="183" height="302" x=".5" y=".5" stroke="#624E65" stroke-linejoin="square" rx="12"/>
                </g>
                <g fill="#9D0FB0" transform="translate(357 232)">
                    <rect width="138" height="48" fill="#9D0FB0" rx="12"/>
                    <text fill="#000000" font-family="Rubik-Medium, Rubik" font-size="16" font-weight="400">
                        <tspan x="46.616" y="30">Pod D</tspan>
                    </text>
                </g>
                <g fill="#9D0FB0" transform="translate(357 392)">
                    <rect width="136" height="46" x="1" y="1" fill-opacity=".126" stroke="#9D0FB0" stroke-width="2" rx="12"/>
                    <text font-family="Rubik-Medium, Rubik" font-size="16" font-weight="400">
                        <tspan x="47.424" y="30">Pod F</tspan>
                    </text>
                </g>
                <text fill="#000000" font-family="Rubik-Medium, Rubik" font-size="16" font-weight="400" transform="translate(335 168)">
                    <tspan x="18.568" y="33">Kubernetes Node 2</tspan>
                </text>
                <g>
                    <g transform="translate(103 312)">
                        <rect width="138" height="48" fill="#9D0FB0" rx="12"/>
                        <text fill="#000000" font-family="Rubik-Medium, Rubik" font-size="16" font-weight="400">
                            <tspan x="46.744" y="30">Pod B</tspan>
                        </text>
                    </g>
                    <g fill="#9D0FB0" transform="translate(357 312)">
                        <rect width="136" height="46" x="1" y="1" fill-opacity=".126" stroke="#9D0FB0" stroke-width="2" rx="12"/>
                        <text font-family="Rubik-Medium, Rubik" font-size="16" font-weight="400">
                            <tspan x="47.256" y="30">Pod E</tspan>
                        </text>
                    </g>
                </g>
                <path fill="#00A697" fill-rule="nonzero" d="M337.908 257.555C317.304 258.643 301 275.702 301 296.5l-.001.345c-.19 22.456-18.55 40.506-41.006 40.316L240.992 337a1 1 0 1 1 .016-2l19.002.161c21.352.181 38.808-16.981 38.989-38.333l.001-.328c0-21.9 17.194-39.855 38.906-40.947l-.007-5.202a.835.835 0 0 1 1.208-.748l12.337 6.15a.835.835 0 0 1 .002 1.493l-12.322 6.18a.835.835 0 0 1-1.21-.746l-.006-5.125z"/>
                <text fill="#000000" font-family="Rubik-Medium, Rubik" font-size="16" font-weight="400" transform="translate(48 35)">
                    <tspan x="194.6" y="56">Traefik Ingress</tspan>
                </text>
                <g fill-rule="nonzero">
                    <path fill="#000000" d="M261.891 61.827h1.056c.43 0 .776-.012 1.038-.037a3.62 3.62 0 0 0 .805-.165c.275-.086.477-.22.609-.404.13-.196.197-.447.197-.754a1.32 1.32 0 0 0-.34-.9c-.227-.258-.537-.386-.931-.386h-.107l-1.217.055h-.197c-.752 0-1.3-.276-1.646-.827-.346-.564-.52-1.477-.52-2.738V45.654h3.293c.788 0 1.181-.349 1.181-1.047 0-.33-.101-.6-.304-.809-.19-.208-.483-.312-.877-.312h-3.292v-5.33c0-.429-.12-.753-.358-.974a1.23 1.23 0 0 0-.895-.35c-.382 0-.733.142-1.056.424-.31.281-.477.618-.5 1.01l-.43 5.22h-2.201c-.394 0-.692.104-.895.312-.203.196-.304.454-.304.772 0 .33.101.594.304.79.215.196.52.294.913.294h2.183V56.24c0 1.9.406 3.308 1.217 4.227.81.907 1.902 1.36 3.274 1.36M270.477 61.827a1.78 1.78 0 0 0 1.161-.4c.339-.266.508-.641.508-1.126v-9.355c0-1.417.448-2.55 1.343-3.397.907-.848 2.178-1.272 3.81-1.272.388 0 .684-.127.89-.381a1.5 1.5 0 0 0 .309-.945c0-.387-.115-.726-.345-1.017-.218-.29-.52-.436-.908-.436-1.282 0-2.383.382-3.302 1.144a5.388 5.388 0 0 0-1.815 2.816l.018-2.18c0-.46-.163-.817-.49-1.071-.314-.267-.695-.4-1.143-.4a1.78 1.78 0 0 0-1.161.4c-.327.254-.49.623-.49 1.108V60.3c0 .485.157.86.472 1.127.314.266.695.4 1.143.4M315.345 61.399c.322-.298.483-.707.483-1.229V45.705h3.026c.764 0 1.145-.36 1.145-1.08 0-.323-.095-.59-.286-.8-.179-.211-.465-.317-.86-.317h-3.025v-1.452c0-1.005.036-1.8.108-2.383.083-.596.233-1.049.447-1.36.227-.322.484-.527.77-.614.287-.099.686-.148 1.2-.148h1.521c.358 0 .633-.125.824-.373.202-.248.304-.546.304-.893 0-.348-.102-.646-.304-.894-.191-.26-.46-.391-.806-.391h-2.184c-1.6 0-2.852.472-3.76 1.415-.906.93-1.36 2.507-1.36 4.729v2.364h-2.345c-.394 0-.686.106-.877.316-.19.212-.286.478-.286.801 0 .31.095.571.286.782.191.199.483.298.877.298h2.345V60.17c0 .522.155.931.466 1.229a1.67 1.67 0 0 0 1.145.428 1.67 1.67 0 0 0 1.146-.428zM325.904 39c.641 0 1.156-.182 1.543-.544.387-.374.58-.856.58-1.447 0-.604-.193-1.086-.58-1.448-.387-.374-.896-.561-1.525-.561-.64 0-1.161.187-1.56.561-.387.374-.58.856-.58 1.448 0 .59.193 1.073.58 1.447.387.362.901.543 1.542.543m-.027 22.828c.445 0 .83-.147 1.155-.442.337-.308.505-.72.505-1.236V45.158c0-.517-.162-.922-.487-1.217a1.574 1.574 0 0 0-1.119-.443c-.445 0-.836.148-1.173.443-.325.295-.487.7-.487 1.217v14.991c0 .541.156.96.47 1.254.312.283.691.424 1.136.424M335.202 61.373c.337-.292.506-.698.506-1.22v-7.929l8.496 9.094c.302.34.663.51 1.085.51.398 0 .747-.152 1.049-.455.313-.304.47-.65.47-1.037 0-.352-.133-.667-.398-.946l-7.177-7.603 6.562-5.91c.29-.28.434-.589.434-.928 0-.376-.15-.716-.452-1.019-.29-.303-.627-.454-1.012-.454-.301 0-.585.115-.85.345l-8.207 7.566v-14.75c0-.51-.163-.91-.488-1.2a1.59 1.59 0 0 0-1.121-.437c-.446 0-.838.146-1.175.437-.326.29-.488.69-.488 1.2v23.517c0 .533.156.946.47 1.237.313.279.693.418 1.139.418.446 0 .831-.145 1.157-.436z"/>
                    <path fill="#9D0FB0" d="M285.4 61.819c-2.075-.182-3.66-.82-4.813-1.935-1.173-1.135-1.676-2.615-1.478-4.344.229-1.99 1.158-3.396 2.786-4.216 1.255-.632 2.507-.872 4.546-.873 1.448 0 2.662.12 4.513.448.458.081.854.148.881.148.039 0 .07-.149.153-.742.152-1.073.18-1.443.138-1.873-.048-.5-.11-.74-.297-1.127-.48-1-1.62-1.613-3.452-1.853-.523-.07-1.732-.079-2.257-.018-.878.1-1.369.23-2.463.647-.64.244-.643.245-.898.23-.439-.026-.738-.229-.93-.629-.08-.164-.093-.232-.093-.454 0-.334.085-.51.381-.793.666-.634 1.785-1.174 2.915-1.405.723-.149 1.08-.18 2.033-.178.986.002 1.617.058 2.493.224 1.458.276 2.565.763 3.4 1.494a5.4 5.4 0 0 1 .78.894c.05.076.1.138.113.138.013 0 .093-.091.18-.203 1.264-1.64 3.392-2.569 5.886-2.567 1.765 0 3.404.455 4.626 1.282.97.656 1.757 1.666 2.076 2.662.182.572.21.783.212 1.614 0 .517-.013.865-.042 1.027-.286 1.632-.967 2.763-2.15 3.569-.95.647-2.146 1.027-3.709 1.176-.786.076-2.225.069-3.157-.015-.791-.072-1.763-.197-2.177-.281-.347-.07-1.535-.273-1.544-.263-.005.005-.061.367-.126.804-.103.7-.118.874-.12 1.432-.002.568.005.668.073.93.216.842.692 1.405 1.557 1.84.85.43 1.742.615 3.09.643.596.013.901.004 1.274-.036.905-.098 1.317-.205 2.519-.655.299-.112.604-.214.678-.226.16-.027.455.028.627.118.312.16.573.59.572.937-.002.406-.137.652-.531.972-.943.764-2.148 1.233-3.585 1.395-.513.058-1.683.066-2.249.016-1.592-.14-2.697-.418-3.708-.93-.788-.4-1.39-.895-1.838-1.515-.11-.153-.204-.281-.209-.286a1.435 1.435 0 0 0-.163.196 6.622 6.622 0 0 1-1.52 1.403c-.814.54-1.984.951-3.168 1.115-.353.049-1.525.09-1.825.063zm2.033-2.323c.966-.218 1.828-.71 2.453-1.4.57-.63 1.038-1.574 1.296-2.614.145-.586.386-2.217.332-2.25a1.303 1.303 0 0 0-.283-.048 32.067 32.067 0 0 1-.853-.102c-1.987-.262-3.206-.364-3.89-.325-1.299.075-1.828.19-2.608.57-.4.194-.676.405-.894.683a3.3 3.3 0 0 0-.634 1.33c-.096.388-.106 1.406-.017 1.734.15.553.328.865.728 1.28.548.566 1.27.945 2.166 1.134.458.096.445.096 1.212.084.556-.009.764-.025.992-.076zm12.66-7.65c.81-.072 1.306-.2 1.917-.492.508-.243.803-.491 1.082-.91.411-.618.572-1.202.568-2.07-.004-.62-.055-.877-.265-1.32-.468-.993-1.57-1.704-3.013-1.947-.36-.06-1.327-.05-1.697.019-.71.132-1.31.373-1.84.737-.98.675-1.654 1.69-2.03 3.055-.148.536-.188.741-.32 1.665l-.12.852.162.018c.491.055 1.6.192 2.243.277.405.053.902.11 1.105.126.585.047 1.635.042 2.209-.01z"/>
                </g>
                <path fill="#9D0FB0" fill-rule="nonzero" d="M75.788 335.018C58.797 329.558 47 313.681 47 295.497v-93.575c0-33.69 27.31-61 61-61h161.42c.11 0 .22 0 .33-.002 16.337-.182 29.432-13.573 29.25-29.909a1 1 0 0 1 2-.022c.194 17.44-13.787 31.737-31.227 31.93l-.352.003H108c-32.585 0-59 26.415-59 59v93.575c0 17.188 11.074 32.212 27.066 37.508l.678-4.919a.835.835 0 0 1 1.3-.575l11.371 7.792a.835.835 0 0 1-.204 1.48l-13.056 4.422a.835.835 0 0 1-1.096-.905l.729-5.282z"/>
            </g>
        </g>
        <path fill="#9D0FB0" fill-rule="nonzero" d="M309.2 25.27a20.182 20.182 0 0 1-3.194 7.466.504.504 0 0 1-.64.158 42.57 42.57 0 0 0-12.724-4.236.502.502 0 0 1-.416-.428 24.51 24.51 0 0 1 .186-7.72.09.09 0 0 1 .09-.074 5 5 0 0 0 4.8-3.648.5.5 0 0 1 .536-.362c.054.006.108.01.162.01a17.6 17.6 0 0 1 9.49 3.31.5.5 0 0 1 .18.534 4.25 4.25 0 0 0-.168 1.156 4.466 4.466 0 0 0 1.538 3.36.496.496 0 0 1 .16.474zm-5.968 10.666a58.23 58.23 0 0 1-5.012 3.978.498.498 0 0 1-.64-.088 21.38 21.38 0 0 1-3.238-4.56 20.542 20.542 0 0 1-1.096-2.656.5.5 0 0 1 .574-.65 39.388 39.388 0 0 1 9.286 3.162.498.498 0 0 1 .126.814zM288.6 28.21a39.85 39.85 0 0 0-11.492.876.498.498 0 0 1-.606-.386 23.814 23.814 0 0 1-.492-4.762c0-.274.024-.542.04-.812a.51.51 0 0 1 .15-.326 22 22 0 0 1 11.2-5.63.5.5 0 0 1 .542.298 5 5 0 0 0 1.554 1.964.124.124 0 0 1 .044.14 26.096 26.096 0 0 0-.41 8.09.5.5 0 0 1-.53.548zm5.862 13.618a22.71 22.71 0 0 1-8.234 1.604.506.506 0 0 1-.3-.096 24.092 24.092 0 0 1-8.264-10.706.5.5 0 0 1 .356-.67 37.748 37.748 0 0 1 11.38-.662.496.496 0 0 1 .44.374 24.476 24.476 0 0 0 1.822 4.932 23.056 23.056 0 0 0 3 4.438.5.5 0 0 1-.2.786zm19.4-15.916a27.02 27.02 0 0 1 5.398 12.03.498.498 0 0 1-.096.376 24.022 24.022 0 0 1-12.912 8.756.494.494 0 0 1-.418-.074 57.368 57.368 0 0 1-5.324-4.238.498.498 0 0 1 .052-.782c7.244-4.986 10.334-10.364 11.498-15.684a.502.502 0 0 1 .436-.4 4.4 4.4 0 0 0 .818-.164.498.498 0 0 1 .536.166l.012.014zM287.4 14.116a25.824 25.824 0 0 0-9.652 3.628.5.5 0 0 1-.748-.562A24.018 24.018 0 0 1 297.8.066a.5.5 0 0 1 .422.82 39.47 39.47 0 0 0-6.11 9.48.186.186 0 0 1-.156.124 4.976 4.976 0 0 0-4.156 3.296.508.508 0 0 1-.4.33zm10.148 29.988a52.837 52.837 0 0 0 3.346 2.93.5.5 0 0 1-.294.888c-.2.014-.4.014-.6.014-2.65.002-5.28-.437-7.786-1.3a.5.5 0 0 1 .044-.958 25.2 25.2 0 0 0 4.732-1.666.498.498 0 0 1 .558.092zm15.948-27.232a56.8 56.8 0 0 0-1.802-12.906.5.5 0 0 1 .746-.548A24.01 24.01 0 0 1 324 23.936a23.736 23.736 0 0 1-1.89 9.258.498.498 0 0 1-.934-.036 30.034 30.034 0 0 0-5.038-9.2l-.014-.016a.5.5 0 0 1-.084-.562c.3-.604.458-1.27.46-1.944a4.492 4.492 0 0 0-2.706-4.108.498.498 0 0 1-.298-.456zm-18.27-6.112A44.91 44.91 0 0 1 302.752.316a.504.504 0 0 1 .428-.152A23.85 23.85 0 0 1 307.6 1.2c.154.05.274.173.322.328a59.964 59.964 0 0 1 2.576 15.344c0 .2-.119.38-.302.46-.096.04-.19.086-.282.134a.502.502 0 0 1-.534-.048A20.49 20.49 0 0 0 298 13.436c-.14 0-.28.023-.412.068a.498.498 0 0 1-.6-.254 5.02 5.02 0 0 0-1.6-1.872.5.5 0 0 1-.162-.618z"/>
        <text fill="#000000" font-family="Rubik-Medium, Rubik" font-size="16" font-weight="400" transform="translate(208)">
            <tspan x="60.104" y="79">Internet</tspan>
        </text>
        <path fill="#624E65" fill-rule="nonzero" d="M299 109.575V90a1 1 0 0 1 2 0v19.575h5.165a.835.835 0 0 1 .747 1.208l-6.165 12.33a.835.835 0 0 1-1.494 0l-6.165-12.33a.835.835 0 0 1 .747-1.208H299z"/>
    </g>
</svg>
